<svg id="Layer_1" data-name="Layer 1" xmlns="http://www.w3.org/2000/svg" viewBox="0 0 100 100"><defs><style>.cls-1{fill:#cfcfcf;}.cls-2{fill:#003a70;}.cls-3{fill:none;stroke:#003a70;stroke-miterlimit:10;stroke-width:2.84px;}</style></defs><title>dr</title><path class="cls-1" d="M98,2.26v96H2v-96H98m2-2H0v100H100V.26Z"/><path class="cls-2" d="M69.58,66.48c0-.57,0-1.11,0-1.5a19.55,19.55,0,0,0-9-16.51,1.37,1.37,0,1,0-1.48,2.3A16.83,16.83,0,0,1,66.88,65c0,.34,0,.79,0,1.27a5.69,5.69,0,1,0,2.73.23Zm-1.83,8.69a3.32,3.32,0,1,1,0-6.63,3.15,3.15,0,0,1,1.33.29c.1.09.17.13.22.12a3.3,3.3,0,0,1-1.55,6.22Z"/><path class="cls-2" d="M41.26,48.9a1.36,1.36,0,0,0-1.89-.4A19.52,19.52,0,0,0,30.5,62.91c-3.51.88-6.68,5.44-7,10.34a1.27,1.27,0,0,0-.05.34V75a5.69,5.69,0,0,0,5.06,5.66h.16a1.37,1.37,0,0,0,.15-2.73A3,3,0,0,1,26.21,75V73.85s0-.08,0-.13c.14-4.23,3.18-8.21,5.46-8.25s5.33,4,5.46,8.25a.68.68,0,0,0,0,.14V75a3,3,0,0,1-2.4,2.9A1.37,1.37,0,0,0,35,80.58l.26,0A5.71,5.71,0,0,0,39.89,75V73.59a1.27,1.27,0,0,0,0-.34c-.29-4.72-3.25-9.13-6.6-10.23a16.81,16.81,0,0,1,7.62-12.23A1.37,1.37,0,0,0,41.26,48.9Z"/><path class="cls-2" d="M50,80.1H50a1.59,1.59,0,0,1-1.48-1,98.42,98.42,0,0,1-3.78-11.88,1.73,1.73,0,0,1,0-.64,61,61,0,0,1,1.81-8c-.12-.27-.27-.55-.43-.85a8.64,8.64,0,0,1-1-2.59,4.9,4.9,0,0,1,1.17-4,2.33,2.33,0,0,1,3.17-.48l.61.43.68-.47a2.05,2.05,0,0,1,1.25-.4,2.38,2.38,0,0,1,1.86.92,4.88,4.88,0,0,1,1.17,4,8.5,8.5,0,0,1-1,2.6c-.16.3-.31.58-.43.85a61.22,61.22,0,0,1,1.81,8,1.73,1.73,0,0,1,0,.64A100.13,100.13,0,0,1,51.5,79.11,1.59,1.59,0,0,1,50,80.1ZM47.89,66.74c.69,2.64,1.4,5.06,2.11,7.2.71-2.14,1.42-4.56,2.11-7.19A57.09,57.09,0,0,0,50.28,59a1.59,1.59,0,0,1,0-1,12.4,12.4,0,0,1,.8-1.73,6.47,6.47,0,0,0,.7-1.61,1.44,1.44,0,0,0-.09-.9l-.27.19a2.66,2.66,0,0,1-2.94,0l-.22-.16a1.51,1.51,0,0,0-.09.9,6.87,6.87,0,0,0,.7,1.61,12.4,12.4,0,0,1,.8,1.73,1.59,1.59,0,0,1,0,1A57.59,57.59,0,0,0,47.89,66.74Z"/><path class="cls-2" d="M51.18,90.67H48.81c-.31,0-31.3-.27-34-9.9-2.17-8.68-1.29-20.39,15.09-27.09,1.21-.49,3.37-1.33,3.37-1.33a8.63,8.63,0,0,0,2.42-1.6l.06-.06,2.09-1.91A2.71,2.71,0,0,1,39.76,48a2.54,2.54,0,0,1,2.44,2.09L50,75.1l7.7-25A2.52,2.52,0,0,1,60.1,48a2.73,2.73,0,0,1,1.92.85l2,1.79.09.08a8.29,8.29,0,0,0,2.42,1.6s2.31.89,3.52,1.39c16.39,6.71,17.26,18.41,15.11,27.05C82.48,90.4,51.49,90.67,51.18,90.67ZM38,53a11.58,11.58,0,0,1-3.52,2.32s-2.13.82-3.31,1.3C19.66,61.32,15.22,69.17,17.9,80c1.47,5.23,21.18,7.52,30.91,7.52h2.37c9.73,0,29.44-2.29,30.92-7.57,2.68-10.74-1.77-18.59-13.23-23.28-1.19-.49-3.46-1.36-3.46-1.36A11.44,11.44,0,0,1,61.9,53l-1.39-1.22L52,79.29c-.49,1.68-1.59,1.86-2,1.86s-1.55-.18-2-1.87L39.37,51.71Z"/><circle class="cls-3" cx="50" cy="27.66" r="17.81"/></svg>